<svg width="30" height="29" viewBox="0 0 30 29" fill="none" xmlns="http://www.w3.org/2000/svg">
<path d="M4.63108 10.9048H26.0015M9.36339 3.75181L15.3163 10.9049L21.2792 3.75682M25.7593 10.3386L21.6132 4.11942C21.5088 3.96283 21.4566 3.88453 21.3877 3.82785C21.3266 3.77767 21.2563 3.74002 21.1806 3.71706C21.0952 3.69112 21.0011 3.69112 20.8129 3.69112H9.81964C9.63144 3.69112 9.53734 3.69112 9.45192 3.71706C9.3763 3.74002 9.30596 3.77767 9.2449 3.82785C9.17594 3.88453 9.12374 3.96283 9.01935 4.11942L4.87324 10.3386C4.73734 10.5424 4.66938 10.6444 4.64503 10.754C4.62352 10.8509 4.62631 10.9515 4.65316 11.047C4.68356 11.1552 4.75706 11.2532 4.90407 11.4492L14.5468 24.3062C14.8079 24.6542 14.9384 24.8283 15.0984 24.8905C15.2385 24.945 15.394 24.945 15.5342 24.8905C15.6942 24.8283 15.8247 24.6542 16.0857 24.3062L25.7285 11.4492C25.8755 11.2532 25.949 11.1552 25.9794 11.047C26.0062 10.9515 26.009 10.8509 25.9875 10.754C25.9632 10.6444 25.8952 10.5424 25.7593 10.3386Z" stroke="#FFFFFF" stroke-width="1.80342" stroke-linecap="round" stroke-linejoin="round"/>
</svg>
