<svg width="28" height="28" viewBox="0 0 28 28" fill="none" xmlns="http://www.w3.org/2000/svg">
<path d="M24.244 14.3527C24.244 19.9234 19.7281 24.4393 14.1574 24.4393C8.58673 24.4393 4.0708 19.9234 4.0708 14.3527C4.0708 8.78204 8.58673 4.26611 14.1574 4.26611M19.7611 14.3527C19.7611 17.4476 17.2522 19.9564 14.1574 19.9564C11.0626 19.9564 8.55374 17.4476 8.55374 14.3527C8.55374 11.2579 11.0626 8.74905 14.1574 8.74905M17.2483 11.3846L21.6852 11.8506L24.0904 8.48335L21.2042 7.52128L20.2421 4.63507L16.8749 7.04025L17.2483 11.3846ZM17.2483 11.3846L14.1574 14.3526" stroke="white" stroke-width="1.6811" stroke-linecap="round" stroke-linejoin="round"/>
</svg>
